<svg width="1346" height="1700" viewBox="0 0 1346 1700" fill="none" xmlns="http://www.w3.org/2000/svg">
<path d="M901.47 1391.12C901.032 1389.67 900.333 1388.3 899.408 1387.1C888.039 1372.32 876.087 1361.85 863.364 1356.37C850.24 1350.71 837.05 1350.7 824.606 1355.58C812.567 1360.31 801.928 1369.31 792.563 1380.52C783.142 1391.79 774.482 1405.93 766.552 1421.92C735.009 1485.52 712.161 1584.39 701.591 1671.72C700.743 1678.73 698.768 1682.21 697.126 1683.92C695.674 1685.43 693.405 1686.7 689.098 1686.88C679.381 1687.31 663.499 1682.02 641.725 1669.07C599.085 1643.71 542.111 1594.06 483.038 1531.52C424.134 1469.15 363.809 1394.65 314.379 1320.22C264.925 1245.76 226.955 1172.22 211.731 1111.39L191.666 999.024L489.31 967.652C490.434 967.534 491.53 967.265 492.571 966.855C492.984 966.796 493.604 966.722 494.477 966.641C497.074 966.402 500.912 966.2 506.006 966.038C516.141 965.718 530.422 965.584 547.934 965.524C558.977 965.486 571.278 965.477 584.56 965.468C613.237 965.448 646.482 965.425 681.493 965.096C783.561 964.135 902.859 960.58 971.035 946.462C1035.38 933.137 1084.77 943.125 1116.9 962.564C1149.18 982.088 1163.79 1010.7 1161.55 1036.41C1160.73 1045.72 1154.25 1060.21 1142.5 1078.87C1131.09 1096.98 1115.95 1117.16 1100.08 1137.37C1092.66 1146.81 1084.8 1156.63 1077.15 1166.16C1068.97 1176.36 1061.04 1186.25 1054.19 1195.03C1040.99 1211.96 1029.43 1227.7 1023.92 1239.2C1022.95 1240.88 1021.92 1242.66 1020.84 1244.54C1008.44 1266.05 988.513 1300.6 971.433 1341.09C952.782 1385.3 937.031 1437.7 938.505 1489.08C938.571 1491.38 938.61 1493.54 938.625 1495.54C926.455 1469.15 911.724 1425.19 901.47 1391.12Z" fill="#362112" stroke="#1D1209" stroke-width="25" stroke-linejoin="round"/>
<path d="M279.378 1276.3C187.279 1238.22 161.407 1083.06 159.984 1010.24C414.43 977.161 1118.35 928.716 1165.5 1010.24C1212.65 1091.77 1085.5 1423 790.318 1230.37C729.021 1177.38 604.288 1105.09 595.736 1239.76C587.183 1374.43 461.361 1393.53 399.52 1386.24C397.847 1365.46 371.478 1314.38 279.378 1276.3Z" fill="#54341C" stroke="#402715" stroke-width="25" stroke-linejoin="round"/>
<path d="M1314.89 939.465C1282.9 989.852 1256.47 1026.27 1233.9 1051.95C1210.99 1078 1192.68 1092.27 1177.29 1099.15C1162.46 1105.79 1149.8 1105.83 1136.95 1101.98C1123.4 1097.92 1109.5 1089.51 1092.58 1078.32C1089.84 1076.51 1087.05 1074.64 1084.18 1072.73C1052.31 1051.43 1012.36 1024.73 954.844 1013.78C892.636 1001.95 811.308 1008.68 697.769 1056.45C561.485 1027.36 461.288 1038.03 384.11 1056.66C351.759 1064.46 323.434 1073.68 298.666 1081.74C293.788 1083.33 289.049 1084.87 284.444 1086.35C256.001 1095.48 233.369 1101.89 213.519 1102.66C200.259 1103.17 188.57 1101.12 177.513 1095.7C166.374 1090.25 155.097 1080.98 143.297 1065.91C119.522 1035.55 94.9981 983.429 65.7666 897.744C54.7854 800.763 64.4788 729.544 89.7568 676.98C114.99 624.51 156.404 589.276 211.594 565.479C267.12 541.537 336.336 529.299 416.309 523.151C496.218 517.007 585.845 517 682 517C777.948 517 872.387 518.816 958.489 527.885C1044.69 536.963 1121.72 553.238 1183.16 581.716C1244.39 610.093 1289.54 650.283 1313.43 707.197C1337.26 763.977 1340.7 839.249 1314.89 939.465Z" fill="#613A1E" stroke="#492C17" stroke-width="25" stroke-linejoin="round"/>
<path d="M1337.52 799.392C1337.51 799.594 1337.5 799.797 1337.5 800C1337.5 801.095 1337.5 802.293 1337.5 803.587C1337.53 823.271 1337.58 865.191 1332.73 906.273C1330.14 928.181 1326.19 949.52 1320.24 966.964C1314.19 984.704 1306.54 996.994 1297.52 1002.64C1293.67 1005.06 1287.28 1004.72 1276.12 998.769C1266.25 993.51 1255.15 985.229 1242.95 976.127C1241.93 975.366 1240.9 974.599 1239.87 973.828C1226.75 964.06 1212.55 953.691 1198.57 946.774C1184.69 939.912 1169.59 935.708 1155.2 940.338C1142.7 944.361 1129.51 954.499 1116.47 966.405C1105.87 976.09 1094.71 987.586 1083.48 999.165C1080.73 1002 1077.97 1004.84 1075.22 1007.66C1061.08 1022.13 1046.91 1036.16 1033.06 1047.15C1019.08 1058.23 1006.2 1065.57 994.688 1067.62C982.566 1069.77 970.673 1066.96 958.184 1060.91C945.564 1054.79 933.001 1045.7 919.519 1035.91L918.375 1035.07C892.51 1016.28 862.928 994.791 827.999 997.129C820.538 997.628 813.281 1001.34 806.574 1006.26C799.759 1011.26 792.774 1018.04 785.77 1025.78C772.474 1040.47 758.331 1059.48 744.378 1078.23C743.652 1079.21 742.925 1080.18 742.199 1081.16C727.397 1101.05 712.861 1120.39 699.288 1134.78C692.508 1141.96 686.198 1147.66 680.442 1151.52C674.607 1155.43 670.008 1157 666.5 1157C663.193 1157 659.703 1155.62 655.802 1152.16C651.827 1148.63 647.825 1143.28 643.781 1136.25C635.673 1122.16 628.381 1103.13 620.871 1083.26L620.115 1081.25C612.971 1062.34 605.6 1042.83 597.322 1027.79C593.026 1019.98 588.258 1012.94 582.813 1007.7C577.329 1002.42 570.709 998.547 562.885 998.146C557.265 997.857 551.526 999.336 546.035 1001.6C540.497 1003.88 534.764 1007.15 529.019 1010.92C517.622 1018.41 505.366 1028.44 493.557 1038.1L493.396 1038.23C481.362 1048.08 469.799 1057.53 459.347 1064.37C454.14 1067.78 449.435 1070.39 445.288 1072.05C441.087 1073.73 437.951 1074.24 435.703 1074.03C407.467 1071.38 386.498 1049.66 364.634 1024.35C363.131 1022.61 361.623 1020.85 360.108 1019.09C350.949 1008.42 341.572 997.5 331.703 988.425C320.15 977.8 307.225 969.02 292.02 965.874C289.477 965.348 286.844 966.174 285.057 968.059C261.01 993.422 245.314 1003.44 235.189 1005.73C230.503 1006.79 227.262 1006.14 224.724 1004.78C221.992 1003.32 219.364 1000.65 216.759 996.534C214.157 992.423 211.874 987.346 209.608 981.62C208.536 978.909 207.499 976.137 206.439 973.302L206.284 972.889C205.18 969.937 204.048 966.919 202.872 963.987C200.547 958.191 197.886 952.304 194.53 947.394C191.169 942.477 186.691 937.918 180.499 935.73C178.374 934.979 176.452 935.24 175.239 935.562C174.012 935.888 172.985 936.413 172.233 936.86C170.736 937.751 169.297 938.962 168.026 940.149C165.424 942.58 162.37 946.013 159.138 949.899C152.627 957.726 144.637 968.317 136.818 978.694L136.384 979.271C128.641 989.548 121.088 999.573 115.025 1006.92C111.972 1010.62 109.475 1013.42 107.632 1015.18C77.1477 1001.13 61.6391 966.791 54.0817 927.677C47.17 891.906 47.3544 854.491 47.4726 830.503C47.4868 827.635 47.5 824.959 47.5 822.5C47.5 740.832 66.728 679.406 100.272 632.978C133.836 586.521 182.236 554.387 241.796 532.216C361.358 487.711 523.928 484 696 484C867.082 484 1032.45 512.534 1152.61 566.712C1273.11 621.041 1345.63 699.76 1337.52 799.392Z" fill="#2D611A" stroke="#243908" stroke-width="15" stroke-linejoin="round"/>
<path d="M664.676 530.282C665.717 530.479 666.779 530.543 667.836 530.472C820.08 520.273 956.25 528.066 1066.6 559.278C1175.71 590.139 1258.66 643.602 1307.74 724.365C1308.06 727.258 1308.67 730.275 1309.26 733.014C1309.7 735.072 1310.13 736.97 1310.58 738.93C1311.18 741.575 1311.8 744.333 1312.51 747.752C1314.8 758.706 1317 771.993 1317 787.027C1317 815.631 1309.07 851.464 1276.54 889.295C1276.4 889.159 1276.25 889.016 1276.1 888.868C1275.02 887.833 1273.79 886.579 1272.39 885.169C1266.93 879.646 1259.1 871.717 1249.48 865.112C1236.89 856.469 1220.49 849.382 1199.18 849.383C1178.63 849.383 1154.6 855.975 1126.07 872.328C1125.96 872.154 1125.84 871.964 1125.71 871.756C1122.95 867.241 1120.5 860.284 1117.3 851.205C1116.95 850.196 1116.58 849.162 1116.21 848.102C1112.85 838.61 1108.56 826.888 1102.27 818.375C1099.02 813.961 1094.61 809.54 1088.65 806.948C1082.37 804.214 1075.53 804.035 1068.68 806.236C1062.06 808.363 1056.79 812.818 1052.68 817.456C1048.5 822.171 1044.77 827.918 1041.39 833.929C1035.44 844.533 1029.75 857.51 1024.29 869.97C1023.61 871.533 1022.93 873.088 1022.25 874.629C1015.98 888.887 1009.95 902.096 1003.57 912.15C998.764 919.717 994.781 923.81 991.743 925.791C942.415 899.947 916.686 882.579 899.706 871.116C896.139 868.709 892.959 866.562 890.027 864.651C881.219 858.913 873.542 854.54 864.084 852.372C854.817 850.248 844.865 850.474 831.835 851.694C815.323 853.239 801.271 863.892 789.617 875.639C778.723 886.619 768.125 900.471 758.057 913.63C757.156 914.807 756.26 915.978 755.368 917.142C744.187 931.725 733.617 945.155 722.873 954.995C713.491 963.588 705.331 968.165 697.925 969.247C673.929 953.068 650.492 935.443 627.649 918.265C613.225 907.418 599.039 896.75 585.097 886.735C566.863 873.637 549.216 861.806 532.744 852.895C516.429 844.069 500.3 837.563 485.24 836.062C478.686 835.408 472.75 839.953 471.669 846.45C463.315 896.699 453.041 921.882 443.535 932.991C439.18 938.081 435.578 939.522 432.791 939.857C429.673 940.231 425.566 939.451 420.058 936.616C409.22 931.038 397.731 920.199 384.989 908.177C384.138 907.374 383.282 906.566 382.419 905.754C375.881 899.595 369.041 893.271 362.346 888.186C355.834 883.241 348.234 878.495 340.088 876.771C338.342 876.401 336.538 876.41 334.795 876.796C312.066 881.833 294.524 884.373 281.099 885.063C267.548 885.759 258.957 884.525 253.683 882.644C248.793 880.901 247.186 878.798 246.426 877.206C245.448 875.155 244.913 871.838 245.542 866.486C246.165 861.181 247.762 855.145 249.816 848.31C250.292 846.723 250.803 845.067 251.325 843.371C252.92 838.196 254.63 832.648 255.859 827.537C257.466 820.857 258.806 812.902 257.409 805.413C255.815 796.865 250.73 789.474 241.444 785.476C227.607 779.517 211.853 783.31 198.677 788.469C184.942 793.847 170.359 802.232 157.185 809.929C156.218 810.494 155.26 811.054 154.31 811.61C141.836 818.907 130.855 825.331 121.664 829.189C116.738 831.257 113.229 832.183 110.922 832.369C110.183 832.429 109.731 832.404 109.486 832.371C106.508 829.5 103.101 822.603 100.534 810.337C98.0241 798.341 96.7809 783.616 96.3016 768.268C95.6448 747.235 96.3954 727.25 96.9695 711.966C97.257 704.312 97.5001 697.837 97.5001 693C97.5001 670.168 109.499 644.409 134.97 619.082C160.343 593.852 198.276 569.941 247.692 551.156C346.449 513.613 489.562 497.139 664.676 530.282ZM109.246 832.319C109.249 832.317 109.278 832.323 109.329 832.345C109.27 832.331 109.244 832.321 109.246 832.319Z" fill="#4DA62E" stroke="#429027" stroke-width="25" stroke-linejoin="round"/>
<path d="M1317 713.5C1317 732.769 1358.45 794.214 1282.45 878.077C1266.52 896.888 1243.45 794.214 1130.45 860.577C1104.97 874.02 1106.88 783.315 1072.95 794.214C1043.78 803.581 1025.79 908.459 991.445 915.577C863.445 849.183 884.654 835.424 833.445 840.216C785.641 844.69 746.85 958.077 694.945 958.077C613.945 904.077 534.924 829.61 484.445 824.577C450.945 1026.08 381.013 874.192 337.946 865.077C152.946 906.077 278.284 790.834 236.946 773.033C201.013 757.56 123.187 836.863 101.945 818.085C76.7657 795.824 88 712.339 88 687C111 547.5 337.945 460.5 680.5 547.5C986.5 527 1161.5 502.5 1317 713.5Z" fill="#4DA62E"/>
<path d="M653.104 438.855C658.723 457.427 668.884 477.202 678.522 495.819L679.174 497.077C688.774 515.617 697.736 532.925 702.536 548.247C707.505 564.106 707.145 575.127 701.458 582.669C695.534 590.526 681.64 597.656 651.565 599.684C635.378 600.776 624.089 598.04 615.941 593.076C607.826 588.131 601.885 580.402 597.442 569.722C592.953 558.93 590.162 545.518 588.21 529.842C586.463 515.818 585.437 500.461 584.34 484.039C584.213 482.125 584.084 480.196 583.953 478.253C582.629 458.625 576.855 438.16 570.171 418.859C566.815 409.169 563.182 399.642 559.701 390.575C559.412 389.821 559.123 389.071 558.837 388.324C555.654 380.041 552.64 372.196 550.039 364.818C544.192 348.237 541.168 335.883 542.159 327.817C542.604 324.196 543.783 322.168 545.332 320.847C547.023 319.405 550.233 317.889 556.411 317.473C581.587 315.774 600.024 327.687 615.302 349.545C630.868 371.815 642.397 403.463 653.104 438.855Z" fill="#B78FD6" stroke="#6C4D7F" stroke-width="17" stroke-linejoin="round"/>
<path d="M1009.07 601.67C1014.16 591.868 1023.68 579.293 1035.33 565.284C1047.16 551.048 1061.91 534.482 1078.06 516.53C1081.73 512.451 1085.47 508.297 1089.28 504.077C1119.08 471.006 1152.53 433.895 1182.21 396.954C1215.88 355.054 1243.66 314.593 1255.97 281.474C1262.12 264.931 1263.87 251.593 1261.77 241.413C1259.91 232.441 1254.85 224.772 1244.21 218.772C1243.96 218.875 1243.66 219.008 1243.3 219.18C1240.55 220.517 1236.6 223.251 1231.44 227.707C1221.2 236.531 1208.63 249.918 1194.63 265.389C1190.77 269.654 1186.81 274.07 1182.78 278.556C1172.43 290.084 1161.67 302.077 1151.15 313.172C1136.59 328.534 1121.8 342.932 1108.3 352.647C1075.12 376.517 1041.53 398.857 1010.66 419.382C991.32 432.243 973.049 444.393 956.625 455.759C935.006 470.721 916.355 484.466 901.71 497.202C886.892 510.088 877.085 521.176 872.171 530.647C854.596 564.523 842.138 594.433 840.198 618.749C839.252 630.617 840.881 640.474 845.109 648.654C849.293 656.749 856.564 664.258 868.756 670.583C892.885 683.101 919.158 681.956 943.975 669.717C969.022 657.364 992.476 633.658 1009.07 601.67ZM1245.22 218.447C1245.22 218.443 1245.18 218.448 1245.07 218.473C1245.17 218.463 1245.22 218.451 1245.22 218.447Z" fill="#E1DDE3" stroke="#685A70" stroke-width="25" stroke-linejoin="round"/>
<path d="M995.662 602.363C999.011 591.84 1006.27 577.831 1015.37 562.051C1024.62 546.014 1036.34 527.188 1049.21 506.757C1052.14 502.115 1055.12 497.386 1058.16 492.583C1081.93 454.936 1108.6 412.691 1131.58 371.252C1157.66 324.251 1178.18 279.665 1184.69 244.938C1187.95 227.592 1187.41 214.15 1183.61 204.475C1180.27 195.946 1173.97 189.248 1162.47 185.138C1162.24 185.282 1161.97 185.464 1161.65 185.694C1159.16 187.479 1155.74 190.842 1151.4 196.11C1142.81 206.541 1132.69 221.865 1121.51 239.487C1118.43 244.345 1115.27 249.369 1112.07 254.473C1103.83 267.588 1095.25 281.233 1086.77 293.951C1075.02 311.559 1062.89 328.256 1051.23 340.119C1022.58 369.27 993.261 396.982 966.321 422.443C949.44 438.399 933.493 453.47 919.235 467.457C900.466 485.868 884.416 502.576 872.142 517.611C859.723 532.823 851.938 545.413 848.702 555.581C837.126 591.946 829.919 623.535 832.131 647.828C833.21 659.684 836.487 669.122 842.04 676.467C847.536 683.736 855.976 689.903 869.064 694.069C894.966 702.314 920.665 696.731 943.047 680.461C965.637 664.04 984.731 636.7 995.662 602.363ZM1163.41 184.646C1163.41 184.642 1163.37 184.655 1163.27 184.697C1163.36 184.672 1163.41 184.651 1163.41 184.646Z" fill="#E1DDE3" stroke="#685A70" stroke-width="25" stroke-linejoin="round"/>
<path d="M863.819 539.318C863.637 540.294 863.34 541.246 862.934 542.152C842.762 587.121 834.728 623.419 836.948 648.669C838.042 661.12 841.56 670.159 846.592 676.392C851.498 682.468 858.59 686.817 868.783 688.71C891.625 692.953 919.144 689.528 942.175 677.319C964.89 665.277 982.987 644.892 988.592 614.717C990.392 605.025 994.951 590.743 1000.89 573.895C1006.92 556.808 1014.68 536.224 1023.22 513.603L1023.77 512.158C1040.79 467.086 1060.9 413.806 1077.34 362.077C1094.02 309.559 1106.55 259.72 1108.51 222.206C1109.5 203.365 1107.73 188.985 1103.51 179.216C1100.08 171.244 1095.16 166.476 1087.95 164.339C1086.17 166.265 1083.79 169.612 1080.85 174.659C1074.72 185.206 1067.75 200.383 1060.1 217.782C1058.01 222.537 1055.87 227.465 1053.68 232.489C1040.35 263.151 1025.47 297.4 1011.14 317.986C990.188 348.093 968.55 377.006 948.677 403.559C936.229 420.192 924.474 435.9 914.013 450.395C900.234 469.49 888.536 486.685 879.781 501.872C870.93 517.228 865.615 529.65 863.819 539.318ZM1089.43 162.978C1089.44 162.968 1089.36 163.013 1089.19 163.142C1089.35 163.054 1089.43 162.989 1089.43 162.978Z" fill="#E1DDE3" stroke="#685A70" stroke-width="25" stroke-linejoin="round"/>
<path d="M373.555 606.549C366.746 597.856 355.059 587.257 341.027 575.642C326.765 563.838 309.207 550.285 290.018 535.627C285.658 532.296 281.211 528.906 276.693 525.462C241.285 498.471 201.552 468.182 165.557 437.363C124.729 402.407 89.9417 367.78 71.7238 337.506C62.6242 322.385 58.4367 309.6 58.6224 299.208C58.7861 290.047 62.3474 281.574 71.6915 273.712C71.9567 273.766 72.2769 273.841 72.6577 273.945C75.6145 274.749 79.9953 276.707 85.8974 280.131C97.5849 286.911 112.413 297.744 129.036 310.36C133.619 313.838 138.329 317.445 143.115 321.11C155.413 330.527 168.208 340.324 180.595 349.284C197.746 361.689 214.941 373.106 230.005 380.157C267.022 397.485 304.168 413.229 338.297 427.695C359.683 436.76 379.885 445.323 398.127 453.458C422.139 464.166 443.008 474.226 459.755 484.036C476.7 493.961 488.388 503.045 494.968 511.445C518.501 541.489 536.273 568.58 542.674 592.119C545.798 603.607 546.019 613.595 543.376 622.416C540.761 631.145 535.002 639.868 524.189 648.338C502.79 665.101 476.758 668.832 450.106 661.39C423.208 653.88 395.776 634.917 373.555 606.549ZM70.6393 273.578C70.6367 273.575 70.6837 273.571 70.788 273.577C70.694 273.585 70.6419 273.582 70.6393 273.578Z" fill="#E1DDE3" stroke="#685A70" stroke-width="25" stroke-linejoin="round"/>
<path d="M386.861 604.75C381.624 595.029 371.904 582.602 360.044 568.776C347.99 554.725 332.984 538.391 316.559 520.691C312.827 516.669 309.019 512.574 305.15 508.414C274.832 475.81 240.81 439.222 210.561 402.746C176.252 361.374 147.84 321.35 135.019 288.425C128.615 271.98 126.656 258.67 128.601 248.46C130.316 239.459 135.262 231.713 145.804 225.549C146.056 225.648 146.359 225.776 146.717 225.943C149.495 227.236 153.48 229.909 158.716 234.284C169.085 242.948 181.862 256.138 196.105 271.39C200.031 275.595 204.062 279.948 208.157 284.371C218.68 295.738 229.628 307.562 240.317 318.493C255.116 333.626 270.126 347.793 283.777 357.297C317.319 380.65 351.258 402.465 382.439 422.508C401.979 435.068 420.437 446.932 437.035 458.042C458.883 472.667 477.745 486.121 492.586 498.628C507.603 511.282 517.581 522.217 522.641 531.611C540.74 565.21 553.661 594.923 555.978 619.205C557.108 631.057 555.632 640.938 551.532 649.183C547.474 657.342 540.32 664.962 528.228 671.476C504.296 684.367 478.008 683.631 453.004 671.778C427.769 659.815 403.95 636.476 386.861 604.75ZM144.79 225.239C144.788 225.235 144.835 225.239 144.937 225.263C144.843 225.255 144.792 225.243 144.79 225.239Z" fill="#E1DDE3" stroke="#685A70" stroke-width="25" stroke-linejoin="round"/>
<path d="M504.779 518.422C505.137 519.348 505.605 520.228 506.172 521.043C534.308 561.509 548.913 595.697 551.399 620.922C552.625 633.361 550.839 642.895 547.045 649.951C543.347 656.828 537.181 662.414 527.514 666.158C505.849 674.55 478.171 676.27 453.28 668.528C428.731 660.893 407.178 644.204 396.092 615.585C392.532 606.393 385.412 593.199 376.458 577.74C367.379 562.062 355.945 543.267 343.369 522.614L342.566 521.295C317.51 480.145 287.892 431.502 262.178 383.701C236.073 335.173 214.549 288.509 205.687 252.003C201.236 233.669 200.319 219.209 202.652 208.83C204.555 200.36 208.508 194.766 215.195 191.334C217.302 192.897 220.262 195.746 224.079 200.163C232.057 209.395 241.717 223.022 252.449 238.706C255.383 242.994 258.399 247.441 261.473 251.975C280.238 279.645 301.198 310.552 319.084 328.135C345.241 353.85 371.85 378.265 396.289 400.688C411.597 414.734 426.053 427.997 439.012 440.309C456.084 456.528 470.759 471.265 482.17 484.572C493.707 498.027 501.227 509.252 504.779 518.422ZM213.489 190.27C213.486 190.26 213.571 190.289 213.755 190.387C213.583 190.329 213.492 190.28 213.489 190.27Z" fill="#E1DDE3" stroke="#685A70" stroke-width="25" stroke-linejoin="round"/>
<path d="M936.375 38.3308C854.375 53.3308 857.875 55.1878 808.375 248.5C791.398 314.798 709.802 498.509 697 521.857C698.791 552.119 720.673 609.614 821.873 597.5C858.373 570 931.707 332.713 930.873 284.546L939.875 281.646C1041.13 332.077 1094.4 292.856 1109.87 258.831C1170.37 100.831 1018.37 23.3308 936.375 38.3308Z" fill="#B78FD6"/>
<path d="M900.375 258.831C914.278 267.905 927.438 275.452 939.875 281.646M939.875 281.646C1041.13 332.077 1094.4 292.856 1109.87 258.831C1170.37 100.831 1018.37 23.3308 936.375 38.3308C854.375 53.3308 857.875 55.1878 808.375 248.5C791.398 314.798 709.802 498.509 697 521.857C698.791 552.119 720.673 609.614 821.873 597.5C858.373 570 931.707 332.713 930.873 284.546L939.875 281.646Z" stroke="#6C4D7F" stroke-width="25" stroke-linecap="round" stroke-linejoin="round"/>
<circle cx="15.5" cy="15.5" r="15.5" transform="matrix(-1 0 0 1 1062.5 133.143)" fill="black"/>
<circle cx="15.5" cy="15.5" r="15.5" transform="matrix(-1 0 0 1 979.5 133.143)" fill="black"/>
<path d="M497.5 253.812C518 453.812 680.037 552.188 686.233 547.188C636.633 588.788 538.956 623.896 522.5 612C484.1 586 361.667 328.167 362.5 280V277.359C270.632 314.508 222.189 272.3 207.5 240L206.133 237.812C145.633 79.812 280.633 22.812 362.633 37.812L363.544 37.9785C444.825 52.8443 477.382 57.543 497.5 253.812Z" fill="#B78FD6"/>
<path d="M417.133 248.228C397.49 261.048 379.293 270.568 362.5 277.359M362.5 277.359C270.632 314.508 222.189 272.3 207.5 240L206.133 237.812C145.633 79.812 280.633 22.812 362.633 37.812L363.544 37.9785C444.825 52.8443 477.382 57.543 497.5 253.812C518 453.812 680.037 552.188 686.233 547.188C636.633 588.788 538.956 623.896 522.5 612C484.1 586 361.667 328.167 362.5 280V277.359Z" stroke="#6C4D7F" stroke-width="25" stroke-linecap="round" stroke-linejoin="round"/>
<circle cx="257.5" cy="144" r="15.5" fill="black"/>
<circle cx="340.5" cy="144" r="15.5" fill="black"/>
<path d="M827 594.5C761.8 714.9 559 652.5 518 608C519.858 606.607 543 599 568.898 536C593.389 499.577 605.969 350.45 598.5 247L729.5 240C717.376 297.681 739.334 466.211 761.978 515C802.588 602.5 825.003 592.217 827 594.5Z" fill="#B78FD6" stroke="#6C4D7F" stroke-width="25" stroke-linecap="round" stroke-linejoin="round"/>
<path d="M786 128.5C786 203.364 734.648 262 662 262C589.236 262 537 203.237 537 128.5C537 91.2916 550.022 62.6792 571.412 43.2695C592.949 23.7273 624.107 12.5 662 12.5C699.887 12.5 730.768 23.7228 752.04 43.2261C773.18 62.6075 786 91.2219 786 128.5Z" fill="#B78FD6" stroke="#6C4D7F" stroke-width="25" stroke-linejoin="round"/>
<path d="M630 113C630 121.56 623.06 128.5 614.5 128.5C605.94 128.5 599 121.56 599 113C599 104.44 605.94 97.5 614.5 97.5C623.06 97.5 630 104.44 630 113Z" fill="black"/>
<path d="M723 113C723 121.56 716.06 128.5 707.5 128.5C698.94 128.5 692 121.56 692 113C692 104.44 698.94 97.5 707.5 97.5C716.06 97.5 723 104.44 723 113Z" fill="black"/>
<path d="M724.922 687.773C727.138 699.767 728.671 712.171 730.072 723.502C730.872 729.965 731.628 736.08 732.443 741.571C734.842 757.738 737.891 770.103 743.474 779.233C748.614 787.639 756.363 794.042 770.427 797.279C785.151 800.669 806.824 800.559 839.042 794.607C856.112 791.454 866.754 785.894 873.518 779.324C880.187 772.845 884.164 764.339 885.988 753.166C887.846 741.775 887.376 728.111 885.4 712.107C883.633 697.788 880.766 682.327 877.669 665.627C877.31 663.687 876.947 661.731 876.582 659.758C869.65 622.229 861.115 590.973 847.713 570.591C841.172 560.643 833.834 553.864 825.474 550.004C817.2 546.184 806.851 544.724 793.344 547.219C766.613 552.157 746.58 569.195 734.51 594.094C722.328 619.225 718.376 652.337 724.922 687.773Z" fill="#B78FD6" stroke="#6C4D7F" stroke-width="25" stroke-linejoin="round"/>
<path d="M646.078 688.773C643.862 700.767 642.329 713.171 640.928 724.502C640.128 730.965 639.372 737.08 638.557 742.571C636.158 758.738 633.109 771.103 627.526 780.233C622.386 788.639 614.637 795.042 600.573 798.279C585.849 801.669 564.176 801.559 531.958 795.607C514.888 792.454 504.246 786.894 497.482 780.324C490.813 773.845 486.836 765.339 485.012 754.166C483.154 742.775 483.624 729.111 485.6 713.107C487.367 698.788 490.234 683.327 493.331 666.627C493.69 664.687 494.053 662.731 494.418 660.758C501.35 623.229 509.885 591.973 523.287 571.591C529.828 561.643 537.166 554.864 545.526 551.004C553.8 547.184 564.149 545.724 577.656 548.219C604.387 553.157 624.42 570.195 636.49 595.094C648.672 620.225 652.624 653.337 646.078 688.773Z" fill="#B78FD6" stroke="#6C4D7F" stroke-width="25" stroke-linejoin="round"/>
</svg>
